<?xml version="1.0"?><svg width="640" height="480" xmlns="http://www.w3.org/2000/svg">
 <title>Jolly Roger</title>
 <g>
  <title>Layer 1</title>
  <g id="g790">
   <path d="m272.734528,177.521347c3,-9 0,-25 1,-35c1,-6 5,-12 8,-18c2,-6 5,-14 12,-16c-2,6 -3,6 -5,11c0,0 -3,11 -3,11c-2,5 -5,7 -6,12c-2,7 -1,24 -1,32c0,2 0,5 -2,7c-3,4 -12,1 -11,11c0,1 0,3 1,4c4,9 20,12 28,16c8,5 6,10 14,15c8,6 29,6 39,5c3,-1 8,-1 11,-3c8,-3 9,-11 17,-16c6,-3 19,-5 25,-14c1,-1 2,-3 2,-4c3,-11 -10,-7 -13,-14c-2,-5 1,-21 2,-26c0,0 3,3 3,3c0,0 0,9 0,9c0,0 1,10 1,10c11,-2 10,-15 11,-24c2,-24 2,-39 -15,-58c-10,-10 -23,-18 -37,-20c0,0 -9,0 -9,0c0,0 -7,-1 -7,-1c0,0 -8,1 -8,1c-13,1 -22,1 -33,7c-8,4 -13,9 -19,16c-15,16 -18,36 -15,57c1,8 3,17 9,22zm33,-30c14,-1 24,9 19,23c-4,9 -13,16 -23,18c-9,1 -13,-5 -13,-13c0,-13 2,-24 17,-28zm56,0c12,0 18,10 19,21c0,3 1,6 1,8c-1,7 -8,12 -15,13c-11,0 -24,-17 -23,-27c2,-9 10,-13 18,-15zm-18,61c0,0 -11,-2 -11,-2c0,0 -9,3 -9,3c-1,-7 2,-17 5,-24c1,-2 3,-6 5,-7c4,-1 5,4 5,6c2,8 5,16 5,24z" id="selection_to_path" stroke="#000000" fill="#0c0101"/>
   <path d="m382.734528,224.521347c-3,1 -7,1 -10,3c-10,7 -5,24.000015 -14,35.000015c-4,5 -13,7 -20,7c-13,0 -29,-1 -35,-14c-5,-9.000015 2,-18.000015 -9,-29.000015c-2,-1 -5,-4 -7,-4c-3,0 -2,4 -2,6c0,0 1,20.000015 1,20.000015c0,15 4,15 11,24c4,6 7,12 14,15c9,3 19,3 28,2c7,0 11,1 18,-3c7,-4 19,-20 21,-28c0,0 1,-14.000015 1,-14.000015c2,-10 3,-8 3,-20z" id="selection_to_path#1" stroke="#000000" fill="#0c0101"/>
   <path d="m565.734558,120.521347c-15,21 -31.265015,38.794006 -49,60c0,0 -24,27 -24,27c-20.000061,19 -70.000031,56.000015 -93.000031,71.000015c-13,9 -27,16 -41,22c0,0 -18.26001,8.839996 -18.26001,8.839996c3,3 8.580017,4.640015 13.630005,7c3,0 13.630005,-5.839996 16.630005,-7.839996c0,0 32,-18 32,-18c6,-4 12,-9 19,-10c-3,7 -10,11 -17,15c0,0 -19,11 -19,11c0,0 -19.950012,11.369995 -22.679993,13.26001c5.470001,2.160004 13.679993,4.639984 18.889984,6.73999c5,0 11.790009,-5 15.790009,-7c11,-6 25,-15 36,-23c0,0 18,-12 18,-12c13.999969,-11 28.000031,-23 41.000031,-36c10,-9.000015 20,-18.000015 28,-29.000015c11,-13 18,-28 26,-43c9,-14 12,-23 17,-38c1,-5 4,-13 2,-18z" id="path719" stroke="#000000" fill="#0c0101"/>
   <path d="m106.734543,115.521347c-3,11 1,24 5,34c9,24 24,45 39,65c9,13 24,29 35,40.000015c0,0 12,10 12,10c0,0 25.999985,23 25.999985,23c21,16 60,40 84,51c0,0 32,14 32,14c0,0 13,5 13,5c15,6 30,10 46,13c9,2 19,5 28,5c-3,-11 -9,-10 -18,-13c0,0 -33,-13 -33,-13c-46,-19 -97,-38 -133,-74c7,0 12,6 17,10c7,5 16,11 24,16c22,13 72,36 97,45c10,4 27,11 37,11c8,1 19,-4 25,-8c-4,-4 -8,-3 -14,-4c0,0 -31,-9 -31,-9c-27,-7 -53,-17 -78,-30c0,0 -14,-6 -14,-6c0,0 -19,-12 -19,-12c0,0 -23,-15 -23,-15c0,0 -24,-19 -24,-19c0,0 -40.999985,-32.000015 -40.999985,-32.000015c0,0 -38,-39 -38,-39c0,0 -19,-22 -19,-22c0,0 -20,-22 -20,-22c0,0 -15,-24 -15,-24z" id="path725" stroke="#000000" fill="#0c0101"/>
   <path d="m427.734528,362.521362c2,4 6,10 6,15c0,11 -13,21 -23,20c-4,-1 -13,-6 -16,0c-1,2 -1,4 0,5c0,4 5,6 9,8c11,3 23,-1 32,-7c7,-4 12,-11 14,-19c0,0 2,-13 2,-13c1,-4 5,-5 9.999969,-12c6,-8 12,-22 20.000061,-28c3,-2 6,-3 10,-4c-2,-3 -4,-5 -6,-8c-2,-1 -4,-3 -6,-3c-3,-1 -7.000061,-1 -10.000061,1c-13.999969,7 -11,20 -18.999969,30c-6,8 -13,12 -23,15z" id="path731" stroke="#000000" fill="#0c0101"/>
   <path d="m459.734497,375.521362c7,3 13,2 20.000061,2c0,0 15,1 15,1c7,0 9,-4 12,-10c1,-2 2,-6 0,-8c-2,-2 -6,-2 -9,-2c0,0 -17,1 -17,1c-3,0 -8.000061,0 -11.000061,1c-5,3 -9,10 -10,15z" id="path737" stroke="#000000" fill="#0c0101"/>
   <path d="m513.734558,389.521362c-5,-2 -8,-4 -11,-8c-1,1 -2,1 -3,2c-1,5 12,17 14,6z" id="path743" stroke="#000000" fill="#0c0101"/>
   <path d="m506.734558,355.521362c0,0 8,5 8,5c-2,4 -7,12 -6,17c1,10 15,10 21,4c7,-8 7,-20 -3,-26c-6,-3 -13,-2 -20,0z" id="path744" stroke="#000000" fill="#0c0101"/>
   <path d="m147.734543,383.521362c0,0 1,1 1,1c8,-2 13,-5 14,-13c-6,1 -12,7 -15,12z" id="selection_to_path#5" stroke="#000000" fill="#0c0101"/>
   <path d="m154.734543,346.521362c-3,-2 -6,-3 -10,-3c-3,0 -6,0 -9,1c-10,4 -11,20 -3,27c4,4 14,6 18,1c4,-4 3,-9 1,-14c-1,-3 -3,-7 -1,-9c1,-2 3,-2 4,-3z" id="selection_to_path#4" stroke="#000000" fill="#0c0101"/>
   <path d="m153.734543,350.521362c1,3 6,15 8,17c3,2 6,2 9,2c0,0 18,-1 18,-1c0,0 13,0 13,0c0,-3 0,-6 -1,-8c-3,-8 -14,-12 -22,-12c0,0 -9,1 -9,1c-6,0 -11,-1 -16,1z" id="selection_to_path#3" stroke="#000000" fill="#0c0101"/>
   <path d="m172.734543,318.521362c19,5 19,21 27,32c3.000015,4 11.000015,10 12.000015,14c1,3 0,4 1,11c2,9 7.999969,18 15.999969,23c9,6 17,10 28,7c6,-2 12,-6 9,-13c-3,-7 -14,0 -21,-2c-7,-3 -15,-13 -15,-21c0,0 4,-14 4,-14c-11,-4 -23.999969,-13 -28.999969,-24c-3.000015,-7 -3.000015,-17 -8.000015,-22c-9,-7 -21,-1 -24,9z" id="selection_to_path#2" stroke="#000000" fill="#0c0101"/>
   <path d="m220.734528,341.521362c3,4 5,5 9,7c14,8 23,2 37,-1c0,0 29,-9 29,-9c-3.839996,-2.579987 -12.420013,-7.950012 -16,-10c0,0 -19,5 -19,5c0,0 -40,8 -40,8z" id="path758" stroke="#000000" fill="#0c0101"/>
   <path d="m234.734528,370.521362c26,0 50,-8 75,-14c0,0 11,-5.205994 14.675995,-5.205994c-3.470001,-2.528992 -17.622009,-7.638 -19.835999,-9.634003c-3,0.889984 -14.839996,4.839996 -18.839996,5.839996c0,0 -25,7 -25,7c0,0 -12,3 -12,3c-7,3 -12,4 -14,13z" id="path759" stroke="#000000" fill="#0c0101"/>
   <path d="m311.734528,255.521362c0,2.5 0.25,5.535004 1.25,7.035004c1,1.5 4.755005,1.638977 5.75,0.964996c0.808014,-0.820007 -0.75,-4.75 -1.625,-5.875c-0.875,-1.125 -2.375,-1.625 -5.375,-2.125z" id="selection_to_path#8" stroke="#000000" fill="#0c0101"/>
   <path d="m319.734528,256.521362c0,0 1,5 1,5c0,1 1,3 2,4c4,2 6,-8 3,-9c-2,-1 -4,0 -6,0z" id="selection_to_path#7" stroke="#000000" fill="#0c0101"/>
   <path d="m331.734528,257.521362c-3,2 -3.087006,5.720978 -1.962006,7.595978c1.125,1.875 3.462006,1.904022 4.962006,1.404022c1,-0.5 2.5,-3 2.625,-5.25c0.125,-2.25 -1.125,-4.25 -5.625,-3.75z" id="selection_to_path#6" stroke="#000000" fill="#0c0101"/>
   <path d="m320.734528,244.521347c2.703003,1.395004 7.174011,-0.087006 7.174011,-0.087006c0,0 -0.174011,-5.912994 -0.174011,-5.912994c-1,-4 -4,-5 -6,-3c-1,2 -1,7 -1,9z" id="path784" stroke="#000000" fill="#0c0101"/>
   <path d="m335.734528,234.521347c-1,0 -4.132996,-0.522995 -5.132996,0.477005c-1.95401,1.959 -2.867004,8.522995 0.132996,10.522995c1.872009,0.477005 5,0.912994 6,-3.087006c0,0 0,-2.912994 0,-2.912994c0,0 -0.040985,-3.255997 -1,-5z" id="path785" stroke="#000000" fill="#0c0101"/>
   <path d="m345.734528,266.521362c0.912994,0.394989 2,-1 3,-2c7,-7 -7.563995,-12.610016 -5,-2c0,0 0.95401,3.825989 2,4z" id="path786" stroke="#000000" fill="#0c0101"/>
   <path d="m317.472534,233.521347c-1,-0.348999 -2.738007,0 -3.738007,0c-7.778992,3.522995 2,17.000015 5,8c0,-1 0,-2 0,-3c0,0 -0.563995,-4.651001 -1.261993,-5z" id="path787" stroke="#000000" fill="#0c0101"/>
   <path d="m339.734528,234.521347c0,0 -1.697998,10.128006 -1,11c1.308014,0.697006 5.342987,0.522995 6.825989,-0.522995c0,-3 0.184021,-6.503006 -0.418976,-8.334c-0.603027,-1.832001 -1.907013,-1.643005 -5.407013,-2.143005z" id="path788" stroke="#000000" fill="#0c0101"/>
   <path d="m349.298523,233.347351c0,0 -0.563995,5.173996 -0.563995,5.173996c0,3 0.651001,8.826004 4.651001,5.826004c0.5,-0.5 1.851013,-6.447998 1.296997,-9.162003c-1.029999,-1.453995 -2.911987,-1.600006 -5.384003,-1.837997z" id="path789" stroke="#000000" fill="#0c0101"/>
  </g>
 </g>
</svg>